MulatAbay-Bold.ufo
<glyph name="dollar" format="2">
  <advance width="1175"/>
  <unicode hex="0024"/>
  <note>
uni0024
</note>
  <outline>
    <contour>
      <point x="522" y="-215" type="line"/>
      <point x="681" y="-215" type="line"/>
      <point x="681" y="-16" type="line"/>
      <point x="925" y="9"/>
      <point x="1079" y="154"/>
      <point x="1079" y="387" type="curve" smooth="yes"/>
      <point x="1079" y="558"/>
      <point x="996" y="678"/>
      <point x="839" y="763" type="curve" smooth="yes"/>
      <point x="682" y="849"/>
      <point x="436" y="882"/>
      <point x="436" y="1069" type="curve" smooth="yes"/>
      <point x="436" y="1179"/>
      <point x="500" y="1244"/>
      <point x="605" y="1244" type="curve" smooth="yes"/>
      <point x="720" y="1244"/>
      <point x="790" y="1165"/>
      <point x="790" y="1005" type="curve"/>
      <point x="1079" y="1005" type="line"/>
      <point x="1079" y="1264"/>
      <point x="938" y="1437"/>
      <point x="702" y="1470" type="curve"/>
      <point x="702" y="1687" type="line"/>
      <point x="542" y="1687" type="line"/>
      <point x="542" y="1473" type="line"/>
      <point x="303" y="1448"/>
      <point x="147" y="1299"/>
      <point x="147" y="1065" type="curve" smooth="yes"/>
      <point x="147" y="872"/>
      <point x="255" y="759"/>
      <point x="403" y="684" type="curve" smooth="yes"/>
      <point x="573" y="598"/>
      <point x="790" y="577"/>
      <point x="790" y="387" type="curve" smooth="yes"/>
      <point x="790" y="275"/>
      <point x="717" y="211"/>
      <point x="598" y="211" type="curve" smooth="yes"/>
      <point x="460" y="211"/>
      <point x="381" y="297"/>
      <point x="381" y="457" type="curve"/>
      <point x="92" y="457" type="line"/>
      <point x="92" y="188"/>
      <point x="244" y="13"/>
      <point x="522" y="-17" type="curve"/>
    </contour>
  </outline>
</glyph>
<glyph name="percent" format="2">
  <advance width="1512"/>
  <unicode hex="0025"/>
  <note>
uni0025
</note>
  <outline>
    <contour>
      <point x="469" y="109" type="line"/>
      <point x="1180" y="1247" type="line"/>
      <point x="1039" y="1323" type="line"/>
      <point x="328" y="185" type="line"/>
    </contour>
    <contour>
      <point x="1109" y="-20" type="curve" smooth="yes"/>
      <point x="1299.667" y="-20"/>
      <point x="1424" y="100.333"/>
      <point x="1424" y="279" type="curve" smooth="yes"/>
      <point x="1424" y="351" type="line" smooth="yes"/>
      <point x="1424" y="541.667"/>
      <point x="1296.333" y="657"/>
      <point x="1107" y="657" type="curve" smooth="yes"/>
      <point x="920.333" y="657"/>
      <point x="791" y="537"/>
      <point x="791" y="357" type="curve" smooth="yes"/>
      <point x="791" y="283" type="line" smooth="yes"/>
      <point x="791" y="100.333"/>
      <point x="917" y="-20"/>
    </contour>
    <contour>
      <point x="1109" y="146" type="curve" smooth="yes"/>
      <point x="1037" y="146"/>
      <point x="983" y="205.667"/>
      <point x="983" y="279" type="curve" smooth="yes"/>
      <point x="983" y="354" type="line" smooth="yes"/>
      <point x="983" y="438"/>
      <point x="1032.333" y="490"/>
      <point x="1107" y="490" type="curve" smooth="yes"/>
      <point x="1181.667" y="490"/>
      <point x="1231" y="437"/>
      <point x="1231" y="357" type="curve" smooth="yes"/>
      <point x="1231" y="281" type="line" smooth="yes"/>
      <point x="1231" y="191"/>
      <point x="1190.333" y="146"/>
    </contour>
    <contour>
      <point x="412" y="800" type="curve" smooth="yes"/>
      <point x="600" y="800"/>
      <point x="727" y="919"/>
      <point x="727" y="1099" type="curve" smooth="yes"/>
      <point x="727" y="1171" type="line" smooth="yes"/>
      <point x="727" y="1359"/>
      <point x="600.667" y="1477"/>
      <point x="410" y="1477" type="curve" smooth="yes"/>
      <point x="222" y="1477"/>
      <point x="95" y="1354.667"/>
      <point x="95" y="1176" type="curve" smooth="yes"/>
      <point x="95" y="1105" type="line" smooth="yes"/>
      <point x="95" y="918.333"/>
      <point x="222.667" y="800"/>
    </contour>
    <contour>
      <point x="412" y="966" type="curve" smooth="yes"/>
      <point x="337.333" y="966"/>
      <point x="287" y="1019"/>
      <point x="287" y="1099" type="curve" smooth="yes"/>
      <point x="287" y="1172" type="line" smooth="yes"/>
      <point x="287" y="1258.667"/>
      <point x="336.667" y="1310"/>
      <point x="410" y="1310" type="curve" smooth="yes"/>
      <point x="487.333" y="1310"/>
      <point x="534" y="1256"/>
      <point x="534" y="1176" type="curve" smooth="yes"/>
      <point x="534" y="1102" type="line" smooth="yes"/>
      <point x="534" y="1019.333"/>
      <point x="486.667" y="966"/>
    </contour>
  </outline>
</glyph>
<glyph name="plus" format="2">
  <advance width="1118"/>
  <unicode hex="002B"/>
  <note>
uni002B
</note>
  <outline>
    <contour>
      <point x="419" y="146" type="line"/>
      <point x="694" y="146" type="line"/>
      <point x="694" y="554" type="line"/>
      <point x="1055" y="554" type="line"/>
      <point x="1055" y="815" type="line"/>
      <point x="694" y="815" type="line"/>
      <point x="694" y="1206" type="line"/>
      <point x="419" y="1206" type="line"/>
      <point x="419" y="815" type="line"/>
      <point x="57" y="815" type="line"/>
      <point x="57" y="554" type="line"/>
      <point x="419" y="554" type="line"/>
    </contour>
  </outline>
</glyph>
<glyph name="I" format="2">
  <advance width="597"/>
  <unicode hex="0049"/>
  <note>
uni0049
</note>
  <outline>
    <contour>
      <point x="149" y="0" type="line"/>
      <point x="449" y="0" type="line"/>
      <point x="449" y="1456" type="line"/>
      <point x="149" y="1456" type="line"/>
    </contour>
  </outline>
</glyph>
<glyph name="R" format="2">
  <advance width="1307"/>
  <unicode hex="0052"/>
  <note>
uni0052
</note>
  <outline>
    <contour>
      <point x="130" y="0" type="line"/>
      <point x="430" y="0" type="line"/>
      <point x="430" y="533" type="line"/>
      <point x="669" y="533" type="line"/>
      <point x="942" y="0" type="line"/>
      <point x="1271" y="0" type="line"/>
      <point x="949" y="609" type="line"/>
      <point x="1123.667" y="687.667"/>
      <point x="1209" y="817.333"/>
      <point x="1209" y="1016" type="curve" smooth="yes"/>
      <point x="1209" y="1296"/>
      <point x="1015" y="1456"/>
      <point x="671" y="1456" type="curve" smooth="yes"/>
      <point x="130" y="1456" type="line"/>
    </contour>
    <contour>
      <point x="430" y="776" type="line"/>
      <point x="430" y="1213" type="line"/>
      <point x="671" y="1213" type="line" smooth="yes"/>
      <point x="832.333" y="1213"/>
      <point x="909" y="1129.333"/>
      <point x="909" y="992" type="curve" smooth="yes"/>
      <point x="909" y="857.333"/>
      <point x="822.667" y="776"/>
      <point x="672" y="776" type="curve" smooth="yes"/>
    </contour>
  </outline>
</glyph>
<glyph name="d" format="2">
  <advance width="1154"/>
  <unicode hex="0064"/>
  <note>
uni0064
</note>
  <outline>
    <contour>
      <point x="488" y="-20" type="curve" smooth="yes"/>
      <point x="601.333" y="-20"/>
      <point x="694" y="25"/>
      <point x="766" y="115" type="curve"/>
      <point x="780" y="0" type="line"/>
      <point x="1041" y="0" type="line"/>
      <point x="1041" y="1536" type="line"/>
      <point x="751" y="1536" type="line"/>
      <point x="751" y="984" type="line"/>
      <point x="682.333" y="1062.667"/>
      <point x="595.333" y="1102"/>
      <point x="490" y="1102" type="curve" smooth="yes"/>
      <point x="197" y="1102"/>
      <point x="66" y="842"/>
      <point x="66" y="549" type="curve" smooth="yes"/>
      <point x="66" y="192"/>
      <point x="233" y="-20"/>
    </contour>
    <contour>
      <point x="562" y="214" type="curve" smooth="yes"/>
      <point x="427.333" y="214"/>
      <point x="355" y="325.333"/>
      <point x="355" y="528" type="curve" smooth="yes"/>
      <point x="355" y="754"/>
      <point x="424.667" y="867"/>
      <point x="564" y="867" type="curve" smooth="yes"/>
      <point x="652.667" y="867"/>
      <point x="715" y="829.333"/>
      <point x="751" y="754" type="curve"/>
      <point x="751" y="327" type="line"/>
      <point x="714.333" y="251.667"/>
      <point x="651.333" y="214"/>
    </contour>
  </outline>
</glyph>
<glyph name="o" format="2">
  <advance width="1158"/>
  <unicode hex="006F"/>
  <note>
uni006F
</note>
  <outline>
    <contour>
      <point x="579" y="-20" type="curve" smooth="yes"/>
      <point x="891" y="-20"/>
      <point x="1091" y="198"/>
      <point x="1091" y="530" type="curve" smooth="yes"/>
      <point x="1067.667" y="910.667"/>
      <point x="869" y="1102"/>
      <point x="577" y="1102" type="curve" smooth="yes"/>
      <point x="203.123" y="1100.954"/>
      <point x="66" y="818"/>
      <point x="66" y="538" type="curve" smooth="yes"/>
      <point x="66" y="194"/>
      <point x="267" y="-20"/>
    </contour>
    <contour>
      <point x="579" y="213" type="curve" smooth="yes"/>
      <point x="435" y="213"/>
      <point x="355" y="324.667"/>
      <point x="355" y="530" type="curve" smooth="yes"/>
      <point x="355" y="760.667"/>
      <point x="435.667" y="868"/>
      <point x="577" y="868" type="curve" smooth="yes"/>
      <point x="719.667" y="868"/>
      <point x="802" y="752.333"/>
      <point x="802" y="551" type="curve" smooth="yes"/>
      <point x="802" y="315"/>
      <point x="719" y="213"/>
    </contour>
  </outline>
</glyph>
<glyph name="section" format="2">
  <advance width="1287"/>
  <unicode hex="00A7"/>
  <outline>
    <contour>
      <point x="636" y="-452" type="curve" smooth="yes"/>
      <point x="958.667" y="-452"/>
      <point x="1153" y="-311.333"/>
      <point x="1153" y="-78" type="curve" smooth="yes"/>
      <point x="1153" y="46"/>
      <point x="1108" y="142"/>
      <point x="1018" y="210" type="curve"/>
      <point x="1126" y="269.333"/>
      <point x="1180" y="359.667"/>
      <point x="1180" y="481" type="curve" smooth="yes"/>
      <point x="1180" y="750"/>
      <point x="954" y="835"/>
      <point x="706" y="901" type="curve" smooth="yes"/>
      <point x="579" y="935"/>
      <point x="410" y="965"/>
      <point x="410" y="1097" type="curve" smooth="yes"/>
      <point x="410" y="1187.667"/>
      <point x="493.333" y="1243"/>
      <point x="640" y="1243" type="curve" smooth="yes"/>
      <point x="782.667" y="1243"/>
      <point x="870" y="1165"/>
      <point x="870" y="1049" type="curve"/>
      <point x="1159" y="1049" type="line"/>
      <point x="1159" y="1317"/>
      <point x="969.333" y="1476"/>
      <point x="640" y="1476" type="curve" smooth="yes"/>
      <point x="321.333" y="1476"/>
      <point x="120" y="1323"/>
      <point x="120" y="1095" type="curve" smooth="yes"/>
      <point x="120" y="971.667"/>
      <point x="165.333" y="875.667"/>
      <point x="256" y="807" type="curve"/>
      <point x="148" y="745"/>
      <point x="94" y="654"/>
      <point x="94" y="534" type="curve" smooth="yes"/>
      <point x="94" y="271"/>
      <point x="313" y="184"/>
      <point x="552.5" y="117.5" type="curve" smooth="yes"/>
      <point x="668" y="86"/>
      <point x="864" y="40"/>
      <point x="864" y="-80" type="curve" smooth="yes"/>
      <point x="864" y="-164"/>
      <point x="785.333" y="-218"/>
      <point x="636" y="-218" type="curve" smooth="yes"/>
      <point x="466.667" y="-218"/>
      <point x="381" y="-152.667"/>
      <point x="381" y="-35" type="curve"/>
      <point x="92" y="-35" type="line"/>
      <point x="92" y="-305.667"/>
      <point x="293.333" y="-452"/>
    </contour>
    <contour>
      <point x="812" y="312" type="curve"/>
      <point x="625" y="370"/>
      <point x="519" y="409"/>
      <point x="459" y="444" type="curve" smooth="yes"/>
      <point x="394" y="482"/>
      <point x="383" y="515"/>
      <point x="383" y="563" type="curve" smooth="yes"/>
      <point x="383" y="629"/>
      <point x="408" y="676"/>
      <point x="458" y="704" type="curve"/>
      <point x="842" y="597"/>
      <point x="894" y="534.667"/>
      <point x="894" y="452" type="curve" smooth="yes"/>
      <point x="894" y="390"/>
      <point x="866.667" y="343.333"/>
    </contour>
  </outline>
</glyph>
<glyph name="paragraph" format="2">
  <advance width="1003"/>
  <unicode hex="00B6"/>
  <note>
uni00B6
</note>
  <outline>
    <contour>
      <point x="650" y="0" type="line"/>
      <point x="869" y="0" type="line"/>
      <point x="869" y="1456" type="line"/>
      <point x="571" y="1456" type="line" smooth="yes"/>
      <point x="264.333" y="1456"/>
      <point x="75" y="1272"/>
      <point x="75" y="988" type="curve" smooth="yes"/>
      <point x="75" y="702.667"/>
      <point x="263.333" y="520"/>
      <point x="570" y="520" type="curve" smooth="yes"/>
      <point x="650" y="520" type="line"/>
    </contour>
  </outline>
</glyph>
<glyph name="ordmasculine" format="2">
  <advance width="936"/>
  <unicode hex="00BA"/>
  <note>
uni00BA
</note>
  <outline>
    <contour>
      <point x="466" y="690" type="curve" smooth="yes"/>
      <point x="675.333" y="690"/>
      <point x="811" y="832"/>
      <point x="811" y="1044" type="curve" smooth="yes"/>
      <point x="811" y="1116" type="line" smooth="yes"/>
      <point x="811" y="1337.333"/>
      <point x="670.667" y="1476"/>
      <point x="464" y="1476" type="curve" smooth="yes"/>
      <point x="257.333" y="1476"/>
      <point x="118" y="1334.333"/>
      <point x="118" y="1121" type="curve" smooth="yes"/>
      <point x="118" y="1049" type="line" smooth="yes"/>
      <point x="118" y="831.667"/>
      <point x="255.333" y="690"/>
    </contour>
    <contour>
      <point x="466" y="836" type="curve" smooth="yes"/>
      <point x="359.333" y="836"/>
      <point x="293" y="913.333"/>
      <point x="293" y="1044" type="curve" smooth="yes"/>
      <point x="293" y="1117" type="line" smooth="yes"/>
      <point x="293" y="1253"/>
      <point x="360" y="1328"/>
      <point x="464" y="1328" type="curve" smooth="yes"/>
      <point x="569.333" y="1328"/>
      <point x="636" y="1250.333"/>
      <point x="636" y="1121" type="curve" smooth="yes"/>
      <point x="636" y="1041" type="line" smooth="yes"/>
      <point x="634.667" y="911.667"/>
      <point x="570" y="836"/>
    </contour>
  </outline>
</glyph>
<glyph name="oe" format="2">
  <advance width="1847"/>
  <unicode hex="0153"/>
  <note>
uni0153
</note>
  <outline>
    <contour>
      <point x="593" y="-20" type="curve" smooth="yes"/>
      <point x="748.333" y="-20"/>
      <point x="872" y="29.667"/>
      <point x="964" y="129" type="curve"/>
      <point x="1057.333" y="29.667"/>
      <point x="1181.667" y="-20"/>
      <point x="1337" y="-20" type="curve" smooth="yes"/>
      <point x="1495.667" y="-20"/>
      <point x="1649.667" y="25.667"/>
      <point x="1747" y="103" type="curve"/>
      <point x="1668" y="290" type="line"/>
      <point x="1558.667" y="230"/>
      <point x="1480.333" y="212"/>
      <point x="1367" y="212" type="curve" smooth="yes"/>
      <point x="1229.667" y="212"/>
      <point x="1138.333" y="299.333"/>
      <point x="1117" y="450" type="curve"/>
      <point x="1771" y="450" type="line"/>
      <point x="1771" y="608" type="line" smooth="yes"/>
      <point x="1771" y="922.667"/>
      <point x="1596.333" y="1102"/>
      <point x="1311" y="1102" type="curve" smooth="yes"/>
      <point x="1167.667" y="1103.333"/>
      <point x="1051.333" y="1053.667"/>
      <point x="962" y="953" type="curve"/>
      <point x="868.667" y="1052.333"/>
      <point x="745" y="1102"/>
      <point x="591" y="1102" type="curve" smooth="yes"/>
      <point x="385.667" y="1102"/>
      <point x="225.333" y="1004.833"/>
      <point x="144" y="837.5" type="curve" smooth="yes"/>
      <point x="103.333" y="753.833"/>
      <point x="83" y="658.333"/>
      <point x="83" y="551" type="curve" smooth="yes"/>
      <point x="83" y="538" type="line" smooth="yes"/>
      <point x="83" y="192.667"/>
      <point x="282.333" y="-20"/>
    </contour>
    <contour>
      <point x="593" y="212" type="curve" smooth="yes"/>
      <point x="449" y="212"/>
      <point x="372" y="323.333"/>
      <point x="372" y="530" type="curve" smooth="yes"/>
      <point x="372" y="762"/>
      <point x="451" y="868"/>
      <point x="591" y="868" type="curve" smooth="yes"/>
      <point x="732.333" y="868"/>
      <point x="813" y="755"/>
      <point x="813" y="551" type="curve" smooth="yes"/>
      <point x="813" y="313.667"/>
      <point x="734.333" y="212"/>
    </contour>
    <contour>
      <point x="1120" y="647" type="line"/>
      <point x="1141.333" y="789.667"/>
      <point x="1208.333" y="868"/>
      <point x="1311" y="868" type="curve" smooth="yes"/>
      <point x="1421.667" y="868"/>
      <point x="1487" y="802.333"/>
      <point x="1487" y="673" type="curve" smooth="yes"/>
      <point x="1487" y="647" type="line"/>
    </contour>
  </outline>
</glyph>
<glyph name="ogonek" format="2">
  <advance width="616"/>
  <unicode hex="02DB"/>
  <note>
uni02DB
</note>
  <outline>
    <contour>
      <point x="260" y="-422" type="curve" smooth="yes"/>
      <point x="321.333" y="-422"/>
      <point x="376.333" y="-407.333"/>
      <point x="425" y="-378" type="curve"/>
      <point x="396" y="-221" type="line"/>
      <point x="364.667" y="-234.333"/>
      <point x="338" y="-241"/>
      <point x="316" y="-241" type="curve" smooth="yes"/>
      <point x="272" y="-241"/>
      <point x="250" y="-219.333"/>
      <point x="250" y="-176" type="curve" smooth="yes"/>
      <point x="250" y="-105.333"/>
      <point x="305.333" y="-56"/>
      <point x="404" y="0" type="curve"/>
      <point x="256" y="60" type="line"/>
      <point x="107.333" y="-7.333"/>
      <point x="33" y="-98.333"/>
      <point x="33" y="-213" type="curve" smooth="yes"/>
      <point x="33" y="-343.667"/>
      <point x="126.667" y="-422"/>
    </contour>
  </outline>
</glyph>
<glyph name="semicolon-ethiopic" format="2">
  <advance width="556"/>
  <unicode hex="1364"/>
  <outline>
    <contour>
      <point x="128" y="1215" type="line"/>
      <point x="488" y="1215" type="line"/>
      <point x="488" y="1383" type="line"/>
      <point x="128" y="1383" type="line"/>
    </contour>
    <contour>
      <point x="130" y="-272" type="line"/>
      <point x="494" y="-272" type="line"/>
      <point x="494" y="-84" type="line"/>
      <point x="130" y="-84" type="line"/>
    </contour>
    <component base="period" xOffset="21" yOffset="883"/>
    <component base="period" xOffset="20"/>
  </outline>
</glyph>
<glyph name="thirty-ethiopic" format="2">
  <advance width="1290"/>
  <unicode hex="1374"/>
  <outline>
    <contour>
      <point x="125" y="0" type="line"/>
      <point x="410" y="0" type="line"/>
      <point x="410" y="1222" type="line"/>
      <point x="556" y="1222" type="line"/>
      <point x="556" y="0" type="line"/>
      <point x="909" y="0" type="line" smooth="yes"/>
      <point x="1027" y="0"/>
      <point x="1113" y="86"/>
      <point x="1113" y="204" type="curve" smooth="yes"/>
      <point x="1113" y="1456" type="line"/>
      <point x="819" y="1456" type="line"/>
      <point x="819" y="234" type="line"/>
      <point x="702" y="234" type="line"/>
      <point x="702" y="1456" type="line"/>
      <point x="227" y="1456" type="line" smooth="yes"/>
      <point x="168" y="1456"/>
      <point x="125" y="1413"/>
      <point x="125" y="1354" type="curve" smooth="yes"/>
    </contour>
    <component base="_num.bar" xOffset="64"/>
  </outline>
</glyph>
<glyph name="ninety-ethiopic" format="2">
  <advance width="1290"/>
  <unicode hex="137A"/>
  <outline>
    <contour>
      <point x="793" y="1" type="line"/>
      <point x="1071" y="1" type="line"/>
      <point x="848" y="594" type="line"/>
      <point x="1153" y="1294" type="line"/>
      <point x="1153" y="1456" type="line"/>
      <point x="125" y="1456" type="line"/>
      <point x="125" y="1222" type="line"/>
      <point x="849" y="1222" type="line"/>
      <point x="564" y="604" type="line"/>
    </contour>
    <component base="_num.bar" xOffset="64"/>
  </outline>
</glyph>
<glyph name="guilsinglleft" format="2">
  <advance width="638"/>
  <unicode hex="2039"/>
  <note>
uni2039
</note>
  <outline>
    <contour>
      <point x="388" y="125" type="line"/>
      <point x="574" y="125" type="line"/>
      <point x="334" y="524" type="line"/>
      <point x="574" y="924" type="line"/>
      <point x="388" y="924" type="line"/>
      <point x="108" y="534" type="line"/>
      <point x="108" y="515" type="line"/>
    </contour>
  </outline>
</glyph>
<glyph name="infinity" format="2">
  <advance width="2143"/>
  <unicode hex="221E"/>
  <note>
uni221E
</note>
  <outline>
    <contour>
      <point x="608" y="-20" type="curve" smooth="yes"/>
      <point x="800.667" y="-20"/>
      <point x="954.333" y="84"/>
      <point x="1069" y="292" type="curve"/>
      <point x="1183.667" y="84"/>
      <point x="1337.333" y="-20"/>
      <point x="1530" y="-20" type="curve" smooth="yes"/>
      <point x="1682" y="-20"/>
      <point x="1808" y="36"/>
      <point x="1898" y="131" type="curve" smooth="yes"/>
      <point x="1991" y="230"/>
      <point x="2045" y="370"/>
      <point x="2045" y="530" type="curve" smooth="yes"/>
      <point x="2045" y="708"/>
      <point x="1990" y="853"/>
      <point x="1896" y="953" type="curve" smooth="yes"/>
      <point x="1805" y="1048"/>
      <point x="1679" y="1102"/>
      <point x="1532" y="1102" type="curve" smooth="yes"/>
      <point x="1342.667" y="1102"/>
      <point x="1183.667" y="1004.333"/>
      <point x="1069" y="799" type="curve"/>
      <point x="955.667" y="1001.667"/>
      <point x="794" y="1102"/>
      <point x="606" y="1102" type="curve" smooth="yes"/>
      <point x="442" y="1101"/>
      <point x="322" y="1021"/>
      <point x="240" y="918" type="curve" smooth="yes"/>
      <point x="139" y="792"/>
      <point x="94" y="633"/>
      <point x="94" y="550" type="curve" smooth="yes"/>
      <point x="94" y="344"/>
      <point x="170" y="179"/>
      <point x="297" y="81" type="curve" smooth="yes"/>
      <point x="381" y="16"/>
      <point x="487" y="-20"/>
    </contour>
    <contour>
      <point x="623" y="220" type="curve" smooth="yes"/>
      <point x="469.667" y="220"/>
      <point x="375" y="344.667"/>
      <point x="375" y="530" type="curve" smooth="yes"/>
      <point x="375" y="744.667"/>
      <point x="474.333" y="861"/>
      <point x="621" y="861" type="curve" smooth="yes"/>
      <point x="810" y="861"/>
      <point x="923" y="624"/>
      <point x="923" y="562" type="curve"/>
      <point x="923" y="533" type="line" smooth="yes"/>
      <point x="923" y="484"/>
      <point x="816" y="220"/>
    </contour>
    <contour>
      <point x="1515" y="220" type="curve" smooth="yes"/>
      <point x="1321" y="220"/>
      <point x="1214" y="481"/>
      <point x="1214" y="533" type="curve" smooth="yes"/>
      <point x="1214" y="562" type="line" smooth="yes"/>
      <point x="1214" y="626"/>
      <point x="1331" y="861"/>
      <point x="1517" y="861" type="curve" smooth="yes"/>
      <point x="1663.667" y="861"/>
      <point x="1763" y="736.667"/>
      <point x="1763" y="550" type="curve" smooth="yes"/>
      <point x="1763" y="339.333"/>
      <point x="1667" y="220"/>
    </contour>
  </outline>
</glyph>
<glyph name="approxequal" format="2">
  <advance width="1181"/>
  <unicode hex="2248"/>
  <note>
uni2248
</note>
  <outline>
    <contour>
      <point x="835" y="661" type="curve" smooth="yes"/>
      <point x="914.333" y="661"/>
      <point x="988" y="696.333"/>
      <point x="1056" y="767" type="curve"/>
      <point x="1056" y="1004" type="line"/>
      <point x="988.667" y="920"/>
      <point x="912.667" y="878"/>
      <point x="828" y="878" type="curve" smooth="yes"/>
      <point x="769.333" y="878"/>
      <point x="712.667" y="890.667"/>
      <point x="658" y="916" type="curve" smooth="yes"/>
      <point x="520" y="984" type="line" smooth="yes"/>
      <point x="463.333" y="1009.333"/>
      <point x="405.667" y="1021.333"/>
      <point x="347" y="1020" type="curve" smooth="yes"/>
      <point x="259" y="1020"/>
      <point x="165" y="980.667"/>
      <point x="101" y="914" type="curve"/>
      <point x="101" y="677" type="line"/>
      <point x="161" y="751.667"/>
      <point x="262" y="803"/>
      <point x="354" y="803" type="curve" smooth="yes"/>
      <point x="412.667" y="804.333"/>
      <point x="470.333" y="792.333"/>
      <point x="527" y="767" type="curve" smooth="yes"/>
      <point x="665" y="699" type="line" smooth="yes"/>
      <point x="719.667" y="673.667"/>
      <point x="776.333" y="661"/>
    </contour>
    <contour>
      <point x="828" y="241" type="curve" smooth="yes"/>
      <point x="912" y="241"/>
      <point x="988" y="276.333"/>
      <point x="1056" y="347" type="curve"/>
      <point x="1056" y="584" type="line"/>
      <point x="988.667" y="500"/>
      <point x="910" y="458"/>
      <point x="820" y="458" type="curve" smooth="yes"/>
      <point x="762.667" y="458"/>
      <point x="707.667" y="470"/>
      <point x="655" y="494" type="curve" smooth="yes"/>
      <point x="515" y="563" type="line" smooth="yes"/>
      <point x="457.667" y="589"/>
      <point x="399" y="601.333"/>
      <point x="339" y="600" type="curve" smooth="yes"/>
      <point x="248.333" y="600"/>
      <point x="169" y="564.667"/>
      <point x="101" y="494" type="curve"/>
      <point x="101" y="257" type="line"/>
      <point x="165" y="337"/>
      <point x="259" y="383"/>
      <point x="347" y="383" type="curve" smooth="yes"/>
      <point x="405.667" y="384.333"/>
      <point x="463.333" y="372.333"/>
      <point x="520" y="347" type="curve" smooth="yes"/>
      <point x="658" y="279" type="line" smooth="yes"/>
      <point x="712.667" y="253.667"/>
      <point x="769.333" y="241"/>
    </contour>
  </outline>
</glyph>
<glyph name="_smart.cha" format="2">
  <anchor x="-5" y="34" name="_cha"/>
  <outline>
    <contour>
      <point x="-632" y="-38"/>
      <point x="-336" y="-38"/>
      <point x="-336" y="144" type="curve" smooth="yes"/>
      <point x="-336" y="328"/>
      <point x="-632" y="328"/>
      <point x="-632" y="144" type="curve" smooth="yes"/>
    </contour>
    <contour>
      <point x="251" y="-38"/>
      <point x="547" y="-38"/>
      <point x="547" y="144" type="curve" smooth="yes"/>
      <point x="547" y="328"/>
      <point x="251" y="328"/>
      <point x="251" y="144" type="curve" smooth="yes"/>
    </contour>
  </outline>
</glyph>
<glyph name="_smart.du" format="2">
  <anchor x="-173" y="224" name="_du"/>
  <outline>
    <contour>
      <point x="37" y="-68" type="line"/>
      <point x="37" y="299" type="line"/>
      <point x="-172" y="299" type="line"/>
      <point x="-172" y="-68" type="line"/>
    </contour>
    <contour>
      <point x="206" y="48" type="curve" smooth="yes"/>
      <point x="298" y="48"/>
      <point x="354" y="104"/>
      <point x="354" y="184" type="curve" smooth="yes"/>
      <point x="354" y="264"/>
      <point x="298" y="321"/>
      <point x="206" y="321" type="curve" smooth="yes"/>
      <point x="117" y="321"/>
      <point x="58" y="264"/>
      <point x="58" y="184" type="curve" smooth="yes"/>
      <point x="58" y="104"/>
      <point x="115" y="48"/>
    </contour>
  </outline>
</glyph>
<glyph name="_smart.hat.left" format="2">
  <anchor x="5" y="12" name="_hat.left"/>
  <outline>
    <contour>
      <point x="-327" y="1" type="line" name="❌"/>
      <point x="337" y="1" type="line" name="❌"/>
      <point x="337" y="156" type="line"/>
      <point x="-327" y="156" type="line"/>
    </contour>
  </outline>
</glyph>
<glyph name="_smart.he.left.inner" format="2">
  <anchor x="0" y="-41" name="_he.left.inner"/>
  <outline>
    <contour>
      <point x="138" y="-157" type="curve" smooth="yes"/>
      <point x="213" y="-157"/>
      <point x="259" y="-111"/>
      <point x="259" y="-46" type="curve" smooth="yes"/>
      <point x="259" y="19"/>
      <point x="213" y="66"/>
      <point x="138" y="66" type="curve" smooth="yes"/>
      <point x="65" y="66"/>
      <point x="17" y="19"/>
      <point x="17" y="-46" type="curve" smooth="yes"/>
      <point x="17" y="-111"/>
      <point x="64" y="-157"/>
    </contour>
  </outline>
</glyph>
<glyph name="_smart.hwa" format="2">
  <anchor x="0" y="368" name="_hwa"/>
  <outline>
    <contour>
      <point x="-399" y="30" type="line"/>
      <point x="119" y="30" type="line"/>
      <point x="119" y="-66" type="line"/>
      <point x="293" y="-66" type="line"/>
      <point x="293" y="221" type="line"/>
      <point x="123" y="221" type="line"/>
      <point x="123" y="386" type="line"/>
      <point x="-105" y="386" type="line"/>
      <point x="-105" y="221" type="line"/>
      <point x="-399" y="221" type="line"/>
    </contour>
  </outline>
</glyph>
<glyph name="_smart.ka" format="2">
  <anchor x="-620" y="1035" name="_ka"/>
  <outline>
    <contour>
      <point x="-695" y="1012" type="line"/>
      <point x="-604" y="1102" type="line"/>
      <point x="-850" y="1102" type="line"/>
      <point x="-850" y="1390" type="line"/>
      <point x="-1085" y="1390" type="line"/>
      <point x="-1085" y="1012" type="line"/>
    </contour>
  </outline>
</glyph>
<glyph name="_smart.nose" format="2">
  <anchor x="253" y="101" name="_nose"/>
  <outline>
    <contour>
      <point x="196" y="-232" type="curve" smooth="yes"/>
      <point x="288" y="-232"/>
      <point x="344" y="-176"/>
      <point x="344" y="-96" type="curve" smooth="yes"/>
      <point x="344" y="-16"/>
      <point x="288" y="41"/>
      <point x="196" y="41" type="curve" smooth="yes"/>
      <point x="107" y="41"/>
      <point x="48" y="-16"/>
      <point x="48" y="-96" type="curve" smooth="yes"/>
      <point x="48" y="-176"/>
      <point x="105" y="-232"/>
    </contour>
  </outline>
</glyph>
<glyph name="_smart.ri" format="2">
  <anchor x="-101" y="260" name="_ri"/>
  <outline>
    <contour>
      <point x="-97" y="326" type="line"/>
      <point x="-97" y="635" type="line"/>
      <point x="-302" y="635" type="line"/>
      <point x="-302" y="451" type="line"/>
      <point x="-209" y="451" type="line"/>
      <point x="-209" y="326" type="line"/>
    </contour>
  </outline>
</glyph>
<glyph name="_smart.ring" format="2">
  <anchor x="443" y="1025" name="_ring"/>
  <outline>
    <contour>
      <point x="442" y="1024" type="curve" smooth="yes"/>
      <point x="569" y="1024"/>
      <point x="665" y="1112"/>
      <point x="665" y="1225" type="curve" smooth="yes"/>
      <point x="665" y="1342"/>
      <point x="565" y="1430"/>
      <point x="442" y="1430" type="curve" smooth="yes"/>
      <point x="318" y="1430"/>
      <point x="219" y="1340"/>
      <point x="219" y="1225" type="curve" smooth="yes"/>
      <point x="219" y="1114"/>
      <point x="313" y="1024"/>
    </contour>
    <contour>
      <point x="442" y="1118" type="curve" smooth="yes"/>
      <point x="375" y="1118"/>
      <point x="334" y="1166"/>
      <point x="334" y="1225" type="curve" smooth="yes"/>
      <point x="334" y="1286"/>
      <point x="377" y="1334"/>
      <point x="442" y="1334" type="curve" smooth="yes"/>
      <point x="507" y="1334"/>
      <point x="550" y="1286"/>
      <point x="550" y="1225" type="curve" smooth="yes"/>
      <point x="550" y="1166"/>
      <point x="509" y="1118"/>
    </contour>
  </outline>
</glyph>
<glyph name="_smart.yu" format="2">
  <anchor x="149" y="726" name="_yu"/>
  <outline>
    <contour>
      <point x="147" y="596" type="line"/>
      <point x="610" y="596" type="line"/>
      <point x="610" y="832" type="line"/>
      <point x="147" y="832" type="line"/>
    </contour>
  </outline>
</glyph>
<glyph name="ba.base" format="2">
  <advance width="1264"/>
  <anchor x="309" y="743" name="aGl"/>
  <anchor x="30" y="1465" name="eGl"/>
  <anchor x="975" y="0" name="haa"/>
  <anchor x="643" y="1382" name="hat"/>
  <anchor x="257" y="1312" name="hat.left"/>
  <anchor x="603" y="1194" name="he.acute.top"/>
  <anchor x="446" y="560" name="he.left.inner"/>
  <anchor x="195" y="634" name="he.left.outer"/>
  <anchor x="948" y="50" name="hee"/>
  <anchor x="1066" y="130" name="hi"/>
  <anchor x="278" y="-20" name="ho"/>
  <anchor x="1070" y="673" name="hu"/>
  <anchor x="978" y="58" name="hwa"/>
  <anchor x="492" y="1040" name="ka"/>
  <anchor x="658" y="1124" name="neck"/>
  <outline>
    <contour>
      <point x="165" y="0" type="line"/>
      <point x="454" y="0" type="line"/>
      <point x="454" y="747" type="line" smooth="yes"/>
      <point x="454" y="879"/>
      <point x="557" y="929"/>
      <point x="649" y="925" type="curve" smooth="yes"/>
      <point x="758" y="920"/>
      <point x="810" y="833"/>
      <point x="810" y="756" type="curve" smooth="yes"/>
      <point x="810" y="0" type="line"/>
      <point x="1099" y="0" type="line"/>
      <point x="1099" y="715" type="line" smooth="yes"/>
      <point x="1099" y="973"/>
      <point x="898" y="1111"/>
      <point x="643" y="1111" type="curve" smooth="yes"/>
      <point x="378" y="1111"/>
      <point x="165" y="977"/>
      <point x="165" y="748" type="curve" smooth="yes"/>
    </contour>
  </outline>
</glyph>
<glyph name="eGlottal-ethiopic.liga" format="2">
  <advance width="1254"/>
  <anchor x="1118" y="-41" name="haa"/>
  <anchor x="183" y="1677" name="hat"/>
  <anchor x="183" y="1677" name="hat.left"/>
  <anchor x="1099" y="29" name="hee"/>
  <anchor x="124" y="-32" name="ho"/>
  <anchor x="852" y="965" name="hu"/>
  <anchor x="1045" y="-41" name="hwa"/>
  <anchor x="1155" y="4" name="ni"/>
  <outline>
    <contour>
      <point x="-224" y="1715" type="line"/>
      <point x="-114" y="1443" type="line"/>
      <point x="120" y="1538" type="line"/>
      <point x="10" y="1810" type="line"/>
    </contour>
    <component base="aGl.base.cap"/>
  </outline>
</glyph>
<glyph name="fi.liga" format="2">
  <advance width="1246"/>
  <note>
uniFB01
</note>
  <outline>
    <contour>
      <point x="181" y="0" type="line"/>
      <point x="471" y="0" type="line"/>
      <point x="471" y="870" type="line"/>
      <point x="684" y="870" type="line"/>
      <point x="684" y="1082" type="line"/>
      <point x="471" y="1082" type="line"/>
      <point x="471" y="1126" type="line" smooth="yes"/>
      <point x="471" y="1245.333"/>
      <point x="538.333" y="1305"/>
      <point x="673" y="1305" type="curve" smooth="yes"/>
      <point x="755.667" y="1305"/>
      <point x="810.333" y="1297.667"/>
      <point x="941" y="1259" type="curve"/>
      <point x="983" y="1498" type="line"/>
      <point x="854.333" y="1537.333"/>
      <point x="745" y="1557"/>
      <point x="655" y="1557" type="curve" smooth="yes"/>
      <point x="355" y="1557"/>
      <point x="183.667" y="1404"/>
      <point x="181" y="1132" type="curve" smooth="yes"/>
      <point x="181" y="1082" type="line"/>
      <point x="20" y="1082" type="line"/>
      <point x="20" y="870" type="line"/>
      <point x="181" y="870" type="line"/>
    </contour>
    <contour>
      <point x="828" y="0" type="line"/>
      <point x="1118" y="0" type="line"/>
      <point x="1118" y="1082" type="line"/>
      <point x="828" y="1082" type="line"/>
    </contour>
  </outline>
</glyph>
<glyph name="hha.base" format="2">
  <advance width="1891"/>
  <anchor x="978" y="19" name="cha"/>
  <anchor x="1597" y="2" name="haa"/>
  <anchor x="1719" y="663" name="he"/>
  <anchor x="1099" y="-3" name="he.acute.bottom"/>
  <anchor x="707" y="1279" name="he.acute.top"/>
  <anchor x="1558" y="60" name="hee"/>
  <anchor x="1695" y="140" name="hi"/>
  <anchor x="287" y="-20" name="ho"/>
  <anchor x="1719" y="663" name="hu"/>
  <anchor x="1599" y="50" name="hwa"/>
  <anchor x="945" y="1106" name="neck"/>
  <outline>
    <contour>
      <point x="171" y="0" type="line"/>
      <point x="460" y="0" type="line"/>
      <point x="460" y="639" type="line" smooth="yes"/>
      <point x="460" y="756"/>
      <point x="479" y="865"/>
      <point x="616" y="869" type="curve" smooth="yes"/>
      <point x="687" y="871"/>
      <point x="801" y="872"/>
      <point x="801" y="727" type="curve" smooth="yes"/>
      <point x="801" y="0" type="line"/>
      <point x="1089" y="0" type="line"/>
      <point x="1089" y="697" type="line" smooth="yes"/>
      <point x="1089" y="784"/>
      <point x="1119" y="867"/>
      <point x="1283" y="868" type="curve" smooth="yes"/>
      <point x="1412" y="869"/>
      <point x="1432" y="747"/>
      <point x="1432" y="702" type="curve" smooth="yes"/>
      <point x="1432" y="0" type="line"/>
      <point x="1720" y="0" type="line"/>
      <point x="1720" y="706" type="line" smooth="yes"/>
      <point x="1720" y="970"/>
      <point x="1605" y="1102"/>
      <point x="1393" y="1102" type="curve" smooth="yes"/>
      <point x="1178" y="1102"/>
      <point x="1099" y="1072"/>
      <point x="955" y="916" type="curve"/>
      <point x="859" y="1097"/>
      <point x="681" y="1102"/>
      <point x="589" y="1102" type="curve" smooth="yes"/>
      <point x="371" y="1102"/>
      <point x="171" y="920"/>
      <point x="171" y="683" type="curve" smooth="yes"/>
    </contour>
  </outline>
</glyph>
<glyph name="ra.base" format="2">
  <advance width="1101"/>
  <anchor x="759" y="111" name="fa"/>
  <anchor x="708" y="-53" name="haa"/>
  <anchor x="685" y="-51" name="haa.acute"/>
  <anchor x="598" y="937" name="hat"/>
  <anchor x="344.062" y="1041" name="hat.left"/>
  <anchor x="1041" y="679" name="hee"/>
  <anchor x="1130" y="982" name="ho.ring"/>
  <anchor x="688" y="4" name="hwa"/>
  <anchor x="951.93" y="305" name="ra"/>
  <anchor x="737" y="324" name="raa"/>
  <anchor x="1013" y="264" name="ri"/>
  <outline>
    <contour>
      <point x="568" y="-20" type="curve" smooth="yes"/>
      <point x="770" y="-20"/>
      <point x="995" y="141"/>
      <point x="1017" y="316" type="curve"/>
      <point x="900" y="316" type="line"/>
      <point x="878" y="225"/>
      <point x="768" y="177"/>
      <point x="667" y="174" type="curve" smooth="yes"/>
      <point x="472" y="168"/>
      <point x="474" y="270"/>
      <point x="474" y="517" type="curve" smooth="yes"/>
      <point x="474" y="1082" type="line"/>
      <point x="186" y="1082" type="line"/>
      <point x="186" y="524" type="line" smooth="yes"/>
      <point x="186" y="187"/>
      <point x="275" y="-20"/>
    </contour>
  </outline>
</glyph>
<glyph name="ya.base" format="2">
  <advance width="1135"/>
  <anchor x="253" y="234" name="da"/>
  <anchor x="622" y="-199" name="di"/>
  <anchor x="726" y="234" name="du"/>
  <anchor x="807" y="-2" name="haa"/>
  <anchor x="472" y="-54" name="haa.acute"/>
  <anchor x="535" y="1341" name="hat"/>
  <anchor x="1279" y="756" name="he"/>
  <anchor x="353" y="1086" name="he.left.outer"/>
  <anchor x="778" y="44" name="hee"/>
  <anchor x="936" y="11" name="hha"/>
  <anchor x="754" y="-269" name="hi"/>
  <anchor x="235" y="-10" name="ho"/>
  <anchor x="763" y="289" name="hu"/>
  <anchor x="809" y="0" name="hwa"/>
  <anchor x="570" y="1112" name="neck"/>
  <anchor x="433" y="13" name="ye"/>
  <anchor x="530" y="241" name="yee"/>
  <anchor x="240.483" y="381" name="yi"/>
  <anchor x="330" y="285" name="yu"/>
  <outline>
    <contour>
      <point x="300" y="0" type="line"/>
      <point x="579" y="0" type="line"/>
      <point x="439" y="456" type="line"/>
      <point x="922" y="456" type="line" smooth="yes"/>
      <point x="973" y="456"/>
      <point x="1042" y="519"/>
      <point x="1048" y="565" type="curve" smooth="yes"/>
      <point x="1092" y="907"/>
      <point x="914" y="1102"/>
      <point x="633" y="1102" type="curve" smooth="yes"/>
      <point x="461" y="1102"/>
      <point x="304" y="1001"/>
      <point x="222" y="833" type="curve" smooth="yes"/>
      <point x="181" y="748"/>
      <point x="142" y="600"/>
      <point x="170" y="494" type="curve" smooth="yes"/>
    </contour>
    <contour>
      <point x="439" y="630" type="line"/>
      <point x="450" y="836"/>
      <point x="503" y="888"/>
      <point x="673" y="886" type="curve" smooth="yes"/>
      <point x="751" y="885"/>
      <point x="841" y="832"/>
      <point x="822" y="630" type="curve"/>
    </contour>
  </outline>
</glyph>
